<?xml version="1.0" encoding="utf-8"?>
<!-- Generator: Adobe Adobe Illustrator 24.2.0, SVG Export Plug-In . SVG Version: 6.00 Build 0)  -->
<svg version="1.1" id="Layer_1" xmlns="http://www.w3.org/2000/svg" xmlns:xlink="http://www.w3.org/1999/xlink" x="0px" y="0px"
	 viewBox="0 0 1920 1920" style="enable-background:new 0 0 1920 1920;" xml:space="preserve">
<style type="text/css">
	.st0{fill:none;stroke:#FFFFFF;stroke-width:39;stroke-linecap:round;stroke-linejoin:round;stroke-miterlimit:10;}
</style>
<path class="st0" d="M1451.35,407.67c5.47,48.66,37.14,235.23-30.11,419.65c-44.57,122.22-89.17,244.71-161.05,357.4
	c-89.97,141.06-173.24,285.32-287.78,409.19c-359.16,388.42-594.62,65.25-439.66-162.56c49.03-72.08,106.45-135.53,166.48-198.01
	c107.59-111.98,186.41-242.41,245.95-386.24c47.45-114.62,55.84-236.67,81.98-355.34c15.6-70.83,22.75-143.62,73.09-203.36
	c59.09-70.13,140.71-99.2,212.75-68.59c85.29,36.23,126.94,105.63,138.33,189.15 M1147.02,1021.8
	c51.82,26.46,106.88,44.81,161.39,64.53 M584.47,1607.17c7.62,71.3,29.94,115.61,55.33,152.1 M856.86,1470.51
	c44.49,62.68,49.28,60.45,110.32,106.35 M961.98,1322.08c45.26,42.11,87.27,65.65,137.74,100.81 M736.67,1560.99
	c29.88,55.81,55.3,104.34,92.31,150.74 M1073.24,1173.9c45.64,36.31,94.57,53.56,142.94,78.36 M1239.24,888.13
	c42.35,21.79,89.97,28.35,133.72,46.09 M676.01,1630.3c9.46,54.04,35.58,98.79,56.02,124.36 M1423.68,768.29
	c-38.64-5.49-68.45-12.44-110.67-18.44 M936.37,1432.02c34.98,34.98,53.8,46.57,83,69.14 M1058.22,1275.3
	c41.93,29.54,55.54,31.35,83,50.7 M1359.12,593.14c30.74,1.54,61.48,3.07,92.22,4.61 M1336.07,1012.58
	c-24.07-15.74-52.89-19.97-78.39-32.26 M1164.87,1133.1c32.71,18.53,60.11,30.47,86.24,42.76 M1400.62,855.87
	c-23.06-4.61-46.11-9.22-69.17-13.83 M1366.04,683.03c45.11,3.61,54.03,5.98,80.01,5.98 M1387.63,524.03
	c31.86,0,38.77-5.8,63.71-5.8 M822.28,1577.55c18.79,28.68,42.64,56.28,69.17,69.14 M1368.35,450.26
	c24.31-6.13,50.33-3.14,73.78-13.83"/>
</svg>
