<?xml version="1.0" encoding="utf-8"?>
<!-- Generator: Adobe Adobe Illustrator 24.2.0, SVG Export Plug-In . SVG Version: 6.00 Build 0)  -->
<svg version="1.1" xmlns="http://www.w3.org/2000/svg" xmlns:xlink="http://www.w3.org/1999/xlink" x="0px" y="0px"
	 viewBox="0 0 808 438" style="enable-background:new 0 0 808 438;" xml:space="preserve">
<style type="text/css">
	.st0{fill:#FFFFFF;}
	.st1{display:none;}
</style>
<g id="Layer_1">
	<g>
		<path class="st0" d="M235.11,39.37c18.57-3.97,35.31-10.91,51.67-18.95c14.42-7.09,29.4-12.6,45.48-14.19
			c6.5-0.64,13.12,0.05,19.69-0.01c5.45-0.05,11.04,0.38,16.33-0.63c8.97-1.72,17.38-1.12,25.9,2.21c4.76,1.86,9.96,2.68,15.02,3.6
			c2.52,0.46,5.62,0.48,5.74,3.42c0.09,2.03-1.45,4.72-3.1,6.11c-5.89,4.98-13.09,7.15-20.67,7.05c-8.51-0.11-17-1.02-25.5-1.55
			c-22.53-1.42-44.61,1.15-65.85,8.83c-16.55,5.99-32.77,12.9-49.18,19.31c-4.72,1.84-9.57,3.37-14.35,5.04
			c0.14,0.66,0.29,1.32,0.43,1.98c3.91-0.35,8.03-0.04,11.71-1.16c15.79-4.83,31.88-9.07,47.02-15.53
			c19.12-8.16,39.99-11.17,60.63-8.77c6.75,0.78,13.54,1.38,20.32,1.61c17.7,0.6,33.75-4.02,47.09-16.18
			c12.38-11.28,26.27-12.99,41.36-6.63c10.41,4.39,18.36,12.01,25.46,20.57c2.64,3.18,5.11,6.49,7.68,9.73
			c4.35,5.49,9.12,10.1,16.53,11.47c5.61,1.03,8.72,5.25,9.57,11.18c0.27,1.87,0.91,3.65,1.73,5.35c2.9,5.98,1.59,9.92-4.76,10.55
			c-4.53,0.45-9.24-0.54-13.83-1.18c-1.86-0.26-3.86-0.93-5.37-2.01c-8.6-6.16-18.08-5.88-27.76-4.05
			c-9.83,1.86-18.57-0.59-26.47-6.39c-4.88-3.58-9.65-7.33-14.37-11.13c-13.62-10.93-28.38-13.94-44.73-6.72
			c-11.71,5.17-23.52,4.34-35.54,0.9c-6.03-1.73-12.35-2.5-18.56-3.58c-1.14-0.2-2.38,0.18-3.58,0.81
			c18.8,8.71,37.93,14.13,58.79,8.4c5.52-1.51,11.33-2.21,17.06-2.68c10.16-0.83,18.82,2.65,26.21,9.79
			c7.88,7.62,17.04,13.29,28.18,14.36c5.97,0.57,12.07,0.02,18.1-0.32c10.8-0.61,36.69,7.76,39.35,9.96
			c6.71,5.54,7,10.97,1.52,17.99c-8.02,10.28-18.89,13.8-31.54,11.94c-4.06-0.6-8.07-1.79-11.99-3.09
			c-5.07-1.67-9.8-1.35-14.19,1.65c-4.66,3.18-9.65,3.21-13.98,0.26c-6.77-4.61-14.28-5.62-22-5.86c-11-0.34-21.09-3.4-30.62-8.82
			c-5.26-2.99-10.72-5.67-16.26-8.1c-3.92-1.72-8.12-2.78-12.73-3.15c5.47,6.28,11.74,11.31,18.95,14.96
			c5.38,2.72,11.17,4.63,16.71,7.07c3.76,1.66,7.55,3.35,11.04,5.49c3.56,2.18,5.51,5.55,4.05,9.86c-1.75,5.19-7.29,5.33-11.73,4.91
			c-2.58-0.24-5.13-0.73-7.64-1.35c-5.9-1.44-11.74-1.84-17.82-0.89c-9.53,1.5-18.71-0.14-27.18-4.72
			c-4.14-2.24-8.02-2.66-12.63-1.61c-11.71,2.66-21.67-0.68-29.83-9.66c-2.73-3.01-5.76-6.04-9.25-8
			c-8.13-4.57-16.46-3.65-24.39,0.92c-2.85,1.64-5.43,3.76-8.11,5.68c-7.03,5.04-14.47,7.06-23.31,5.23
			c-27.46-5.68-52.69,1.67-79.96,8.33c-35.6,8.7-43.49,16.03-45.12,17.89c-15.47,17.62-37.56,42.08-52.92,59.8
			c-0.32,0.37-0.34,1.01-0.69,2.13c1.61,1.74,3.37,3.78,5.27,5.67c17.83,17.73,68.41,67.4,84.11,77.76
			c32.93,21.75,31.89,24.21,44.44,25.25c2.34,0.19,4.71,0.23,7.05,0.02c16.97-1.5,32.97,1.61,48.07,9.57
			c4.31,2.27,8.68,4.79,15.07,3.96c0.47-20.95,0.15-41.78,0.21-62.59c0.06-20.94,0.01-41.88,0.01-62.82c0-20.88,0-41.77,0-62.97
			c2.39-0.28,3.96-0.61,5.54-0.61c15.43-0.02,30.85-0.11,46.28,0.08c12.8,0.15,25.21,2.47,36.8,8.11
			c17.74,8.63,28.81,22.63,32.93,41.95c2.8,13.13,2.73,26.33-0.86,39.29c-8.39,30.31-36.4,54-77.46,46.89
			c-4.58-0.79-9.08-2.08-13.58-3.13c-2.51,5.35-3.37,42.64-1.27,59.11c2.84-1.58,5.43-2.84,7.82-4.4c4.15-2.71,8.03-5.84,12.27-8.38
			c8.48-5.07,17.36-5.72,25.75-0.14c6.72,4.47,12.65,4.87,19.89,0.78c8.53-4.82,14.37-3.32,21.71,3.5c0.81,0.75,1.55,1.57,2.34,2.33
			c10.04,9.7,18.27,10.96,32.23,4.39V143.61c1.29-0.78,1.74-1.29,2.19-1.29c22.27,0.16,44.65-2.16,66.76,1.72
			c21.52,3.77,38.6,14.34,48.18,34.82c14.43,30.85,4.83,70.02-21.79,89.16c-15.73,11.31-33.43,13.35-52.02,10.39
			c-4.6-0.73-9.1-2.08-13.61-3.14c-2.66,5.4-3.47,32.74-1.74,57.74c7.04,5.28,14.34,10.02,24.22,9.93
			c5.66-0.05,11.53,1.29,16.96,3.05c12.68,4.1,14.8,16.65,4.41,25.39c-6.66,5.6-14.67,7.93-23.17,6.14
			c-6.4-1.35-12.57-3.9-18.74-6.21c-7.98-2.99-15.75-6.44-24.56-6.58c-8.43-0.13-16.39,1.26-24.07,4.75
			c-12.94,5.88-26.45,9.87-40.79,8.43c-10.01-1.01-29.12-3.45-34.36-5.4c1.15,1.28,17.7,21.03,56.42,11.93
			c7.76-1.82,15.28-4.62,23.02-6.56c18.59-4.66,36.58-2.88,53.74,5.87c4.52,2.3,5.88,4.75,3.89,9.27
			c-1.85,4.21-4.35,8.37-7.44,11.76c-10.25,11.23-22.97,17.93-38.38,18.44c-9.34,0.31-18.72,0.24-28.06-0.16
			c-10.37-0.44-20.3,0.88-29.77,5.26c-7.81,3.61-16,5.26-24.69,5.02c-5.66-0.15-11.09-1.95-16.04-4.71
			c-2.63-1.47-5.94-2.35-8.93-2.33c-6.12,0.03-11.31-1.81-16.03-5.52c-3.68-2.89-7.41-5.72-11.22-8.43
			c-12.55-8.93-27.14-9.9-41.79-10.57c-7.13-0.33-14.38,0-21.36-1.21c-6.42-1.11-12.99-3.03-18.72-6.06
			c-24.33-12.85-43.93-30.88-58.79-54.26c-10.62-16.72-22-32.98-33.6-49.03c-4.8-6.64-10.96-12.34-16.73-18.23
			c-18.88-19.3-37.86-38.5-56.82-57.72c-1.85-1.87-3.84-3.59-7.3-6.8v68.6H4.14V72.34h26.29c0.77,11.17,0.24,22.35,0.34,33.51
			c0.1,11.02,0.02,22.04,0.02,33.06c0,11.3,0,22.59,0,33.89c0,10.98,0,21.96,0,34.25c2.3-1.59,3.93-2.32,5.03-3.53
			c15.39-16.91,30.89-33.72,45.98-50.89c11.62-13.22,22.13-27.45,34.13-40.29c26.64-28.49,57.65-51.11,93.96-65.83
			C217.74,43.34,226.25,41.81,235.11,39.37z M307.9,167.06c-2.9,0.13-5.79,0.26-9.13,0.41c0,27.02-0.05,53.1,0.12,79.18
			c0.01,1.54,1.34,3.82,2.68,4.48c13.37,6.61,35.92,9.08,51-4.97c13.09-12.19,16.02-27.57,13.98-44.49
			c-2.19-18.21-14.32-30.83-32.45-33.12C325.95,167.53,317.68,167.53,307.9,167.06z M488.73,254.44
			c10.65-3.67,18.47-10.59,23.64-20.58c5.27-10.18,5.93-21.02,4.59-32.13c-2.19-18.24-14.33-30.67-32.43-33.27
			c-2.45-0.35-4.89-0.86-7.35-1.01c-9.22-0.58-18.43-0.57-28.03-0.1c0,26.96,0.06,52.8-0.07,78.64c-0.02,3.9,2.26,5.28,5.21,6.38
			C465.1,256.4,476.1,257.84,488.73,254.44z M216.18,85.87c55.32-15.51,109.97-1.24,148.6-10.38c-8.45-1.49-38.64-3.59-45.47-3.83
			c0,0-35.38-3.87-62.5-1.34c-70.65,6.6-132.07,55.26-137.84,60.23c0.36,0.59,0.72,1.18,1.07,1.77
			C123.69,130.76,194.16,92.04,216.18,85.87z M285.43,381.14c29.89,10.54,46.72,26.4,68.45,22.38c1.82,0.45-22.39-6.92-44.08-24.2
			c-28.34-22.57-54.91-15.98-104.28-12.33C211.68,372.16,235.74,363.62,285.43,381.14z"/>
		<path class="st0" d="M578.97,166.37c15.81-22.43,37.19-29.93,63.1-25.88c13.99,2.18,25.09,9.32,33.56,20.68
			c11.1,14.89,13.7,32,13.86,51.16c-16.12,0-31.72,0.01-47.32,0.01c-15.61,0-31.23,0-46.76,0c-1.21,22.65,16.58,38.11,31.56,40.69
			c18.17,3.14,34.97-0.73,50.88-9.51c2.61-1.44,5.13-3.05,9.04-5.39c0.22,8.79,0.36,16.58-0.15,24.33c-0.1,1.44-2.09,3.19-3.63,4.04
			c-5.06,2.77-10.16,5.6-15.53,7.65c-14.74,5.64-30.16,6.55-45.59,4.49c-25.97-3.46-42.35-19.37-50.25-43.33
			C564.03,211.89,565.55,188.59,578.97,166.37z M634.92,196.13c8.95,0,17.9,0,26.77,0c0.8-19.55-12.07-33.05-30.66-33.37
			c-19.22-0.33-35.29,14.79-34.66,33.37C608.65,196.13,620.96,196.13,634.92,196.13z"/>
		<path class="st0" d="M142.66,264.87c-8.95-17.73-6.18-33.73,8.97-45.42c7.04-5.44,15.61-9.17,23.92-12.63
			c9.86-4.11,20.19-7.1,31.33-10.92c-0.4-5.52-0.14-11.05-1.33-16.26c-2-8.77-8.35-13.31-17.08-14.46
			c-11.43-1.51-21.95,1.27-31.35,7.75c-5.58,3.84-10.74,8.31-17.13,13.31c0-9.36-0.37-17.77,0.22-26.11
			c0.18-2.53,2.57-5.37,4.69-7.22c14.07-12.26,30.86-14.95,48.73-13c10.94,1.19,20.83,5.03,28.66,13.18
			c5.71,5.94,9.46,12.93,10.37,21.12c0.7,6.28,0.93,12.63,0.98,18.96c0.13,18.18,0.05,36.37,0.06,54.55c0,1.93-0.09,3.87,0.06,5.78
			c0.49,6.02,3.04,7.74,8.79,5.53c3.29-1.27,6.34-3.18,10.29-5.21c1.28,4.8,0.61,9.36,0.51,13.81c-0.02,1.12-1.08,2.6-2.09,3.26
			c-6.95,4.55-14.14,8.49-22.8,8.81c-9.55,0.35-17.52-1.97-21.74-12.31c-2.03,1.09-3.91,1.97-5.68,3.05
			c-7.86,4.81-16.26,8.06-25.51,8.86C162.2,280.42,151.06,276.49,142.66,264.87z M207.19,225.76c0-4.56,0-9.12,0-15.27
			c-8.41,3.35-15.56,5.85-22.39,9.03c-4.92,2.29-9.83,4.97-13.99,8.4c-6.66,5.49-8.23,14.83-4.69,22.47
			c3.34,7.2,11.17,11.41,19.71,10.42c6.69-0.77,12.63-3.39,17.95-7.56c2.35-1.84,3.54-3.91,3.46-6.97
			C207.08,239.98,207.19,233.68,207.19,225.76z"/>
		<path class="st0" d="M744.83,183.1c7.57,5.07,14.59,9.91,21.89,14.26c10.19,6.08,20.38,12.12,28,21.48
			c12.84,15.78,12.09,35.27-1.84,48.37c-6.81,6.4-15.02,10.33-24.19,11.64c-20.04,2.87-38.76-1.23-56.35-11.45
			c0-9.11,0-18.05,0-28.05c3.04,1.7,5.26,3.18,7.66,4.23c9.29,4.04,18.47,8.45,28.03,11.73c6.94,2.39,14.19,1.38,20.64-2.68
			c7.91-4.99,9.09-13.93,2.01-20.07c-4.94-4.28-10.87-7.43-16.39-11.03c-8.29-5.4-16.84-10.45-24.86-16.22
			c-8.03-5.77-13.78-13.53-15.73-23.46c-3.27-16.58,4.05-30.48,19.69-37.73c8.41-3.9,17.38-5.36,26.55-4.76
			c11.36,0.74,22.17,3.78,32.46,8.75c3.31,1.6,5.18,3.46,4.98,7.49c-0.32,6.58-0.09,13.19-0.09,20.84
			c-2.52-1.04-4.37-1.79-6.21-2.56c-7.6-3.16-15.03-6.85-22.85-9.3c-4.57-1.43-9.83-1.56-14.66-1.08
			C742,164.65,738.39,172.6,744.83,183.1z"/>
	</g>
</g>
<g id="Layer_2" class="st1">
</g>
<g id="Layer_3" class="st1">
</g>
</svg>
